<svg xmlns="http://www.w3.org/2000/svg" viewBox="0 0 1204.059 372.293">
  <path d="M54 92.5L8.8 63.46l-2.273-8.84 15.91-4.797 28.79.505 87.38 12.37 67.18 19.95 34.09 16.16 24.75 15.91 13.13 13.89 6.313 12.12.505 5.556-.505 6.566-3.312 9.653-9.107 7.32-18.75 11.25-18.39 5.358-28.57 5.36-31.07 4.11-48.93 3.04-22.14 1.25-32.86.9-14.29.18-13.93-1.43-8.39-.71-5.35-4.82 1.07-5.18 5.72-3.39 13.04-3.21 35.18-6.78 2.5 2.68-.18 2.14-2.5.36-1.42-1.6-5.35.89-6.07 2.68-23.93 7.15-3.39 2.86 1.43 1.25 3.4.36 37.68.36 42.5-2.14s25-2.32 28.21-2.5c3.22-.18 36.43-3.39 36.43-3.39s21.43-4.11 22.14-3.93c.72.18 13.39-1.79 13.39-1.79l14.64-3.93 10.71-4.28 9.29-4.64 10.18-7.14 2.86-5.72.72-5.9-.18-6.96-3.57-7.5-4.46-7.14-6.07-5-8.39-6.61-6.43-4.46-5.89-3.57-7.68-4.64-8.93-3.93-24.64-9.82-17.86-6.96-14.82-5-17.86-5-1.78 6.61 1.25 8.04 3.04 10 7.5 14.11 8.75 15.18 7.15 8.75 15.18 15.18-9.47 2.5-10.9-11.25-11.79-14.29-9.1-18.57-7.67-21.43-1.61-8.04 1.79-8.75-43.57-7.86-21.25-3.57-11.43-1.25-16.79-1.61h-10.4l-9.1 1.43-11.79 2.32 2.68 4.11 8.93 4.64 6.61 6.07L47 82.88l6.43 3.93 3.22 1.96z"/>
  <path d="M320 141.4l-4.545 4.293s-3.536 3.79-3.03 4.8c.05.1.062.26.058.448l-15.21-.7-18.94 1.01-11.62 4.8-5.05 8.34-.253 8.84 4.797 7.58 13.13 3.79 16.16.51 18.18-1.51 14.39-3.28 1.957-.8 1.072.55 8.84 2.28h10.1l1.01-6.82-5.557-1.26-1.69-.39 3.96-1.62 6.06-4.8-.76-12.63-5.81-6.31-12.37-6.06-9.09-1.01h-5.81zm9.85 8.082l5.81 3.03 6.06 3.788 3.787 5.05 1.516 3.03-.37.967-6.7-4.754-12.38-5.303-6.008-1.857 1.463-2.438 6.818-1.514zm-31.57 9.848l9.85.254 2.484.113.547 6.2 5.06 5.556 5.05 3.535.17.086-.92.166-13.38 2.777h-14.39l-11.87-1.262-5.55-1.516-3.28-3.79-.25-5.31 2.02-4.8 6.06-1.27 5.81-.51 12.63-.26zm22.94 1.924l4.84 1.613 7.828 4.04 6.566 2.778 1.102.58-4.13 1.945-.294.053-5.264-1.316-7.07-5.555-3.535-3.537-.043-.602z"/>
  <path d="M422.7 132.3l-3.158 1.39-1.39 2.65.128 4.925 2.652 3.283 4.293 1.01s4.294 1.64 3.662 1.64c-.632 0 3.787 4.673 3.787 4.673l1.516 4.55 2.904 6.95s1.514 5.43 1.64 6.44c.127 1.01 0 4.93 0 4.93l-2.397 3.41-4.293 2.78-6.314 2.53-9.217 1.9-10.35-1.39-9.092-2.4-3.91-2.52-.62-.43 1.39-.45 4.04-3.92 1.9-4.29-1.13-5.93-3.28-6.69-5.3-3.91-4.67-2.14-5.18-.38-3.91 2.4-2.9 4.68-1.64 5.55 2.53 10.23.84 1.91-2.86.5H359.1l-9.72-.25-1.77 7.32 5.304 1.01 10.48.25 7.074-.76 4.417-.25 3.536-.75.7-.19 1.58 1.58 8.96 4.42 8.21 1.52 12.5 3.41 14.52-1.27 10.86-2.15 5.05-3.92 3.41-3.03 2.28-5.81.38-5.93-1.39-5.31-1.39-5.68-3.66-7.83-4.8-7.83-4.29-5.81-4.04-5.3-4.54-1.26zm-37.76 28.79l4.42 1.895 2.525 5.176-2.398 3.04-4.484 1.91-.187-.14-2.022-3.03-1.01-4.54.505-2.02 1.01-1.77 1.64-.5zm72.36-42.59l-3.662-9.85 1.768-3.156 2.904-2.84 3.03 1.325 9.407 7.07 1.515 2.71.126 2.02-.063 2.9-.63.82-6.82-3.98-3.913-1.64-1.515 3.34zm7.6 40.4l2.084-2.336 3.22-.442 2.462 1.642 1.642 1.894.126 2.02-.315 1.39.5 2.777.94 3.6.31 6.754-3.47 1.26-4.99-3.85-2.08-5.81-.38-9.28zM513.8 68l.625-2.768 1.16-1.875 2.5-.982 2.77 1.16 1.428 2.233 1.518 7.143 1.97 8.04 4.29 13.39 3.13 9.47 3.75 9.2 6.16 15.89 4.29 9.56 2.86 7.5 4.56 9.47 2.5 8.57 2.32 7.95 1.97.81 1.16-2.32 3.22.63-.35 3.66-1.87 4.2 1.87 7.95 2.77 11.43.54 6.34-2.68 1.97-1.6-1.61-3.21-5.09-6.25-15.8-4.82 1.34-7.68.27-7.86.54-8.48-.53-7.41-1.16-6.78-2.41-6.07-2.59-5.9-6.69-2.94-5.44-2.05-5.09-.09-7.76 1.69-8.66 2.68-5.89 4.11-5.09 6.78-2.5 8.84-.18 9.73 3.12 5.81 4.29 4.19 5.98 3.49 7.77 1.87 5.35v6.34l-2.59 3.84-2.76-.45-1.96-4.1-.27-5.54-3.84-7.5-4.29-5.18-4.02-2.05-5.35-1.61-5.8-.71-3.66 1.96-2.95 2.95-2.23 3.57-.71 5.63.45 7.59 2.14 4.64 4.02 4.29 5.27 3.93 7.05 2.05 8.21.72 5.9.36 5.89-.45 5.89-.27 3.04-1.34.09-3.04-4.02-10.09-9.29-22.5-10.18-24.91-6.97-20.71-4.73-13.75-1.43-7.68zm312.8 64.9l-5.557 2.273-1.188 1.19.305-.812-16.54 1.65-12.12 3.03-9.092 5.43-5.934 5.94-2.652 7.71.252 6.19 2.4 6.31 4.04 3.79 8.587 3.66h10.73l13.13-.37 16.04-1.52 1.38-.39.02.02s6.44 1.39 6.82 1.39c.38 0 12.25 1.27 12.25 1.27l11.49.51 9.85-1.64 3.79-1.01 1.39-1.9-3.03-3.66-4.42-.12-5.43 1.01-12.25-1.14-4.92-.69 1.52-.82 8.59-9.22.13-7.95-4.92-9.72-5.3-5.68-6.06-3.28-7.95-1.39h-5.31zm-12.76 11.07l-.123.17-1.264 6.818 1.516 7.576 2.9 5.682 3.91 4.547 3.05 2.766-3.56.76-10.48.5-9.22.37-6.7-1.01-5.81-1.77-3.16-2.65-1.14-3.79 1.39-6.19 3.79-4.17 4.42-3.16 5.05-3.41 7.32-1.77 6.06-.88 2.02-.42zm15.91.043l5.557.38 5.303 2.4 3.156 2.776 3.03 3.41 1.517 2.9-.254 3.66-2.28 2.9-3.29 3.28-3.16 1.39-3.41 1.64-.92.22-4.26-2.24-5.43-4.93-2.91-8.72.5-6.69 2.9-2.15 3.91-.26z"/>
  <path d="M920.3 160.2l3.304-1.07 1.696-2.144-.09-5.893-2.23-4.375-4.912-4.732-8.393-3.482s-7.143-.714-6.786-.804c.35-.09-3.84-.09-3.84-.09l-6.61.537-5.27.714-6.07 1.25-4.74 2.33-3.93 2.95-3.13 2.77-2.33 3.66-3.4 4.92s.71 4.91.71 5.27c0 .36.44 4.91.8 5.18.35.27 1.34 3.93 1.34 3.93l5.44 6.07 9.91 3.04 7.94 1.17 7.41 1.43 9.02-.36 6.96.63 7.23-.89 6.07-1.52 1.96-.09 2.59-6.07-5 .63-10.36.63-14.29-.18-11.25-1.34-8.66-2.68-6.34-3.39-1.16-2.86-.27-4.37.89-3.21 2.14-3.39 4.02-2.68 5.18-2.68 5.27-1.61 6.07-.53 6.16.8 7.95.27 4.56 2.41 2.68 3.22zm72.9-29l-1.875 3.84.035 5.53-2.713-2.048-6.52-4.018-10.54-2.77-7.59 1.875-8.66 4.82-4.465 4.73-.398.77-1.564.74-9.375 7.76-4.107 8.48.09 9.46 3.48 6.07 6.34 5.27 11.43 3.39 11.88.89 10.98-2.32 9.108-2.41 3.027-2.86.01.89 2.41 25.89 1.07 31.07-1.16 29.46.714 43.21 1.875 29.11 2.5 14.11-.892 5.71 2.588 7.23 6.34.09.09-4.82-.715-11.61-1.518-11.25-1.34-18.39-1.16-14.91-.178-25.36-.537-28.66.805-15.98-.447-36.79-1.518-25.18-.086-4.22c.154-.61.978-3.86.978-4.27 0-.45-1.07-8.48-1.07-8.48l-.2-.95-.872-10.12-.09-10.09-2.768-2.86-3.393-.09zm-21.88 9.107l8.482 2.322 5.357 3.57 2.85 3.66s.3.81.43 1.17l-2.4-3.49-4.73-3.84-5-1.7-6.7-.9-4.56.06.63-.42 5.62-.45zm-10.45 10.54l10.09.357 7.768 2.68 3.84 2.945.09 2.76-.982 1.69-1.875.53.18 4.1 4.29-.18 4.02-3.31 1.52-4.2-.67-5.41c.63 1.65 1.3 3.35 1.48 3.53.36.35.72 12.23.72 12.23l-4.55 4.55-6.52 3.3-12.05 1.87-5.89-.45-9.82-1.7-4.28-2.86-2.5-2.86-1.16-5.71 1.52-4.2.27-.49 1.52 1.92 2.68-.9 3.75-5.98 1.12-2.75 5.49-1.54zm94.83-17.747l1.25-4.643 3.036-3.66 4.018-2.59 4.286 3.84 4.196 6.16 5.09 9.732 3.124 15.27.09 9.46.445 8.57-1.25 8.84-5.09 7.59-5.624 5.53-8.3 3.75-6.43.27-6.87-.9-3.57-2.06-4.73-3.04-5.98-5.45-3.84-5.27-4.1-9.73-2.05-9.64-.18-8.48.9-6.88 2.15-3.57 5.54-1.16 2.59 4.55v4.55l-.54 3.04-1.16 2.32-1.16 2.41v5.98l2.5 7.14 2.5 5.36 2.86 5.27 3.04 2.94 2.32 1.96 6.16 1.25 5.98.35 5.63-1.88 3.57-1.87 4.73-5.9 3.13-6.79.45-8.93s-1.52-11.61-1.78-12.77c-.27-1.16-2.23-7.06-2.23-7.06l-3.39-8.57-3.3-4.91-1.43 1.78-1.79 1.79h-3.93l-.89-2.68zm51.9 10.3l-2.904 1.2-2.904 2.208-1.64 4.105-1.327 7.828 1.705 7.45.71 1.79-2.353 1.06.19.32-1.2 5.31 3.03 2.02 2.84-.69 2.077-.68 3.67 3.28 8.46 5.62 6.187 2.21 7.39.82 6.06-1.95 3.85-1.26.64-3.91-.82-2.84-2.84.19-3.15 1.2-4.54.7-5.11-.63-4.29-1.96-4.42-2.65-2.51-1.75 1.63-.59 5.5-1.45 5.37-3.72 1.58-4.04.51-5.36-3.41-4.8-5.17-4.99-3.97-2.21-5.05-1.77h-3.73zm6.188 9.47l4.23 3.03 1.39 4.988-3.98 2.146-6.42 1.646-.27-.447-1.01-3.725-.442-3.914.82-2.21 1.262-1.39 4.42-.125zM1176.7 7.1l-4.465.178-4.465 1.787-4.285 3.035-4.107 6.072-2.768 8.393-2.59 12.95-2.678 18.3-1.43 14.55.537 17.23.98 20.09 4.1 24.91 1.45 8.44-2.8 2.095-13.57 7.232-5.27 4.197-.18 2.67 1.87 4.73 5.09.09 8.93-5.98 6.34-4.2 1.29-.89.4 2.32 5.44 21.34 12.5 42.95 2.32 7.5 2.14-.45-1.34-14.2-4.82-19.2-3.13-12.23-4.73-20.54-1.89-12.23 3.13-2.15 5.27-4.91 7.77-8.4 6.88-11.25 4.02-9.56 2.05-9.74 1.25-8.93-.36-3.04.98-4.56-.81-13.21-.62-8.84-2.15-12.86-4.11-17.86-4.37-11.95-4.29-8.4-3.57-5.54zm-2.055 8.928l1.607 1.787 1.697 4.643 3.3 9.285 2.85 9.375 2.14 7.143 1.25 10.8.89 11.16.98 13.93.09 7.33-1.25 6.79-2.23 8.22-4.65 10-4.92 8.4-7.14 8.13-5.63 4.94-.89-4.39-2.5-15.89-.81-9.28-1.25-11.7-.45-9.73v-8.31l.62-13.39 2.14-14.46 1.96-13.84 2.59-10.71 2.68-5.36 1.87-2.68 2.15-1.69 2.85-.44zM662 100.7l-.536 4.464-6.428.536-9.822-1.25-12.86-1.964-6.607-2.32-5-1.072-2.678-3.75 1.42-3.57 5.35-2.68 12.14-3.214 10.71-1.964 12.32-1.786 11.79-.893 31.43-3.393 22.68-1.07 17.32-.894 22.86.714 15 .893 13.93 1.964 5.35 2.86 3.75 3.57-.9 4.47-3.4 3.04-2.5 1.43-5.72 1.61-2.68-3.39 1.43-1.25 1.43.18 3.03-5-3.57-1.25-7.68-1.78-13.21-.36-12.86-1.07h-11.25l-8.22-.18-11.96.54L712 84.1l-12.5 1.963-14.46.715-14.46 1.07-11.96 2.858-9.286 1.966-6.607 1.605-1.962 1.43 2.68 3.037 6.606 1.964zm40.1 6.5l3.393-3.393 5.357 2.143 3.75 6.43 9.643 11.25 28.93 32.86 11.07 15.89 2.5 12.32-2.678 3.035-8.036 3.93-16.79.892-28.75-1.964-16.25-2.5-16.07-1.786-18.93-1.786-13.75-.71-7.33-3.39 3.93-3.75 4.46-1.6 30.18-2.68 3.03 5.18 10.89 2.32 13.39.9 14.64 1.97 14.11 1.25 13.21-.35 7.85-.35 2.32-2.68-.89-5-3.57-5.89-5.9-7.32-6.07-7.68-10.89-12.68-9.11-9.82-7.15-8.03-6.07-6.78-4.47-5.89z"/>
  <g fill="#fff">
    <path d="M56.567 90.094l-45.2-29.04-2.273-8.84 15.91-4.797 28.79.505 87.38 12.37 67.18 19.95 34.09 16.16 24.75 15.91 13.13 13.89 6.313 12.12.505 5.556-.505 6.566-3.312 9.653-9.107 7.32-18.75 11.25-18.39 5.358-28.57 5.36-31.07 4.11-48.93 3.04-22.14 1.25-32.86.9-14.29.18-13.93-1.43-8.39-.71-5.35-4.82 1.07-5.18 5.72-3.39 13.04-3.21 35.18-6.78 2.5 2.68-.18 2.14-2.5.36-1.42-1.6-5.35.89-6.07 2.68-23.93 7.15-3.39 2.86 1.43 1.25 3.4.36 37.68.36 42.5-2.14s25-2.32 28.21-2.5c3.22-.18 36.43-3.39 36.43-3.39s21.43-4.11 22.14-3.93c.72.18 13.39-1.79 13.39-1.79l14.64-3.93 10.71-4.28 9.29-4.64 10.18-7.14 2.86-5.72.72-5.9-.18-6.96-3.57-7.5-4.46-7.14-6.07-5-8.39-6.61-6.43-4.46-5.89-3.57-7.68-4.64-8.93-3.93-24.64-9.82-17.86-6.965-14.82-5-17.86-5-1.78 6.607 1.25 8.037 3.04 10 7.5 14.11 8.75 15.18 7.15 8.75 15.18 15.18-9.47 2.5-10.9-11.25-11.79-14.29-9.1-18.57-7.675-21.43-1.61-8.034 1.79-8.75-43.57-7.86-21.25-3.57-11.43-1.25-16.79-1.61h-10.4l-9.1 1.43-11.79 2.32 2.68 4.103 8.925 4.64 6.61 6.07 10.33 7.643 6.43 3.93 3.22 1.96z"/>
    <path d="M322.567 138.994l-4.545 4.293s-3.536 3.79-3.03 4.8c.05.1.062.26.058.448l-15.21-.7-18.94 1.01-11.62 4.8-5.05 8.34-.253 8.84 4.797 7.58 13.13 3.79 16.16.51 18.18-1.51 14.39-3.28 1.957-.8 1.08.55 8.84 2.28h10.1l1.01-6.82-5.55-1.26-1.69-.39 3.96-1.62 6.06-4.8-.76-12.63-5.81-6.31-12.37-6.06-9.09-1.01h-5.81zm9.85 8.082l5.81 3.03 6.06 3.788 3.787 5.05 1.516 3.03-.37.967-6.7-4.75-12.38-5.3-6.008-1.85 1.463-2.44 6.818-1.51zm-31.57 9.848l9.85.254 2.484.113.55 6.2 5.06 5.56 5.05 3.54.17.09-.92.17-13.38 2.78h-14.39l-11.87-1.26-5.55-1.51-3.28-3.79-.25-5.31 2.02-4.8 6.06-1.27 5.81-.51 12.63-.26zm22.94 1.924l4.84 1.613 7.828 4.04 6.566 2.78 1.11.58-4.13 1.95-.29.06-5.26-1.31-7.07-5.55-3.53-3.54-.04-.6z"/>
    <path d="M425.267 129.894l-3.158 1.39-1.39 2.65.12 4.925 2.65 3.28 4.29 1.01s4.29 1.64 3.66 1.64c-.63 0 3.79 4.67 3.79 4.67l1.51 4.55 2.9 6.95s1.51 5.43 1.64 6.44c.13 1.01 0 4.93 0 4.93l-2.4 3.41-4.296 2.78-6.31 2.53-9.217 1.9-10.35-1.39-9.09-2.4-3.91-2.52-.62-.43 1.39-.45 4.04-3.92 1.9-4.29-1.13-5.93-3.28-6.69-5.3-3.91-4.67-2.14-5.18-.38-3.91 2.4-2.9 4.68-1.64 5.55 2.53 10.23.84 1.91-2.86.5h-13.27l-9.72-.25-1.77 7.32 5.303 1.01 10.48.25 7.075-.76 4.42-.25 3.535-.75.7-.19 1.58 1.58 8.96 4.42 8.21 1.52 12.5 3.41 14.52-1.27 10.86-2.15 5.05-3.92 3.41-3.03 2.28-5.81.38-5.93-1.39-5.31-1.39-5.68-3.66-7.83-4.8-7.83-4.29-5.81-4.04-5.3-4.54-1.26zm-37.76 28.79l4.42 1.895 2.525 5.17-2.398 3.04-4.484 1.91-.187-.14-2.022-3.03-1.01-4.54.51-2.02 1.01-1.77 1.64-.5zm72.36-42.59l-3.662-9.85 1.768-3.156 2.904-2.84 3.03 1.325 9.407 7.07 1.515 2.71.12 2.02-.07 2.9-.63.82-6.82-3.98-3.92-1.64-1.52 3.34zm7.6 40.4l2.084-2.336 3.22-.442 2.47 1.642 1.64 1.894.13 2.02-.31 1.39.5 2.777.94 3.6.31 6.75-3.47 1.26-4.99-3.85-2.08-5.81-.38-9.28zm48.9-90.9l.625-2.768 1.16-1.875 2.5-.98 2.77 1.16 1.428 2.24 1.518 7.15 1.97 8.04 4.29 13.39 3.13 9.47 3.75 9.2 6.16 15.89 4.29 9.56 2.86 7.5 4.56 9.47 2.5 8.57 2.32 7.95 1.97.81 1.16-2.32 3.22.63-.35 3.66-1.87 4.2 1.87 7.95 2.77 11.43.54 6.34-2.68 1.97-1.6-1.61-3.21-5.09-6.25-15.8-4.82 1.34-7.68.27-7.86.54-8.48-.53-7.41-1.16-6.78-2.41-6.07-2.59-5.9-6.69-2.94-5.44-2.057-5.09-.09-7.76 1.69-8.66 2.68-5.89 4.11-5.09 6.78-2.5 8.84-.18 9.73 3.12 5.81 4.29 4.19 5.98 3.49 7.77 1.87 5.35v6.34l-2.59 3.84-2.76-.45-1.96-4.1-.27-5.54-3.84-7.5-4.29-5.18-4.02-2.05-5.35-1.61-5.8-.71-3.66 1.96-2.95 2.95-2.23 3.57-.71 5.628.45 7.59 2.14 4.64 4.02 4.29 5.27 3.93 7.05 2.05 8.21.718 5.9.358 5.89-.45 5.89-.27 3.04-1.34.09-3.04-4.02-10.09-9.29-22.5-10.18-24.91-6.97-20.71-4.73-13.75-1.43-7.68zm312.8 64.9l-5.557 2.273-1.188 1.19.305-.812-16.54 1.65-12.12 3.03-9.092 5.43-5.934 5.94-2.65 7.71.25 6.19 2.4 6.31 4.04 3.79 8.59 3.66h10.73l13.13-.37 16.04-1.52 1.38-.39.02.02s6.44 1.39 6.82 1.39c.38 0 12.25 1.27 12.25 1.27l11.49.51 9.85-1.64 3.79-1.01 1.39-1.9-3.03-3.66-4.42-.12-5.43 1.01-12.25-1.14-4.92-.69 1.52-.82 8.59-9.22.13-7.95-4.92-9.72-5.3-5.68-6.06-3.28-7.95-1.39h-5.31zm-12.76 11.07l-.123.17-1.264 6.818 1.516 7.576 2.9 5.682 3.91 4.547 3.05 2.766-3.56.76-10.48.5-9.22.37-6.7-1.01-5.81-1.77-3.16-2.65-1.14-3.79 1.39-6.19 3.79-4.17 4.42-3.16 5.05-3.41 7.32-1.77 6.06-.88 2.02-.42zm15.91.043l5.557.38 5.303 2.4 3.156 2.776 3.03 3.41 1.517 2.9-.254 3.66-2.28 2.9-3.29 3.28-3.16 1.39-3.41 1.64-.92.22-4.26-2.24-5.43-4.93-2.91-8.72.5-6.69 2.9-2.15 3.91-.26z"/>
    <path d="M922.867 157.794l3.304-1.07 1.7-2.144-.09-5.893-2.23-4.375-4.91-4.732-8.39-3.482s-7.14-.714-6.78-.804c.35-.09-3.84-.09-3.84-.09l-6.61.537-5.27.72-6.07 1.25-4.74 2.33-3.93 2.95-3.13 2.77-2.33 3.66-3.4 4.92s.71 4.91.71 5.27c0 .36.44 4.91.8 5.18.35.27 1.34 3.93 1.34 3.93l5.44 6.07 9.91 3.04 7.94 1.17 7.41 1.43 9.02-.36 6.96.63 7.23-.89 6.07-1.52 1.96-.09 2.59-6.07-5 .63-10.36.63-14.29-.18-11.25-1.34-8.66-2.68-6.34-3.39-1.16-2.86-.27-4.37.89-3.21 2.14-3.39 4.02-2.68 5.18-2.68 5.27-1.61 6.07-.53 6.16.8 7.95.27 4.56 2.41 2.68 3.22zm72.9-29l-1.875 3.84.035 5.53-2.713-2.048-6.52-4.018-10.54-2.77-7.59 1.875-8.66 4.82-4.465 4.73-.4.77-1.57.74-9.38 7.76-4.11 8.48.09 9.46 3.48 6.07 6.34 5.27 11.43 3.39 11.88.89 10.98-2.32 9.11-2.41 3.02-2.86.01.89 2.41 25.89 1.07 31.07-1.16 29.46.71 43.21 1.87 29.11 2.5 14.11-.895 5.71 2.59 7.23 6.34.09.09-4.82-.717-11.61-1.52-11.25-1.34-18.39-1.16-14.91-.18-25.36-.537-28.66.806-15.98-.45-36.79-1.52-25.18-.085-4.22c.157-.61.98-3.86.98-4.27 0-.45-1.07-8.48-1.07-8.48l-.2-.95-.87-10.12-.09-10.09-2.77-2.86-3.392-.09zm-21.88 9.107l8.482 2.33 5.35 3.57 2.85 3.66s.3.81.43 1.17l-2.4-3.49-4.73-3.84-5-1.7-6.7-.9-4.56.06.63-.42 5.62-.45zm-10.45 10.54l10.09.36 7.768 2.68 3.84 2.95.09 2.76-.982 1.69-1.875.53.18 4.1 4.29-.18 4.02-3.31 1.52-4.2-.67-5.41c.63 1.65 1.3 3.35 1.48 3.53.36.35.72 12.23.72 12.23l-4.55 4.55-6.52 3.3-12.05 1.87-5.89-.45-9.82-1.7-4.28-2.86-2.5-2.86-1.16-5.71 1.52-4.2.27-.49 1.52 1.92 2.68-.9 3.75-5.98 1.12-2.75 5.49-1.54zm94.83-17.74l1.25-4.64 3.036-3.66 4.018-2.59 4.29 3.84 4.2 6.16 5.09 9.74 3.13 15.27.09 9.46.45 8.57-1.25 8.84-5.09 7.59-5.62 5.53-8.3 3.75-6.43.27-6.87-.9-3.57-2.06-4.73-3.04-5.98-5.45-3.84-5.27-4.1-9.73-2.05-9.64-.18-8.48.9-6.88 2.15-3.57 5.54-1.16 2.59 4.55v4.55l-.54 3.04-1.16 2.32-1.16 2.41v5.98l2.5 7.14 2.5 5.36 2.86 5.27 3.04 2.94 2.32 1.96 6.16 1.25 5.98.35 5.63-1.88 3.57-1.87 4.73-5.9 3.13-6.79.45-8.93s-1.52-11.61-1.78-12.77c-.27-1.16-2.23-7.06-2.23-7.06l-3.39-8.57-3.3-4.91-1.43 1.79-1.79 1.79h-3.93l-.89-2.68zm51.9 10.3l-2.904 1.2-2.904 2.21-1.64 4.11-1.33 7.83 1.7 7.45.71 1.79-2.36 1.06.19.32-1.2 5.31 3.03 2.02 2.84-.69 2.07-.68 3.67 3.28 8.46 5.62 6.182 2.21 7.39.82 6.06-1.95 3.85-1.26.64-3.91-.82-2.84-2.84.19-3.15 1.2-4.54.7-5.11-.63-4.29-1.96-4.42-2.65-2.51-1.75 1.63-.59 5.5-1.45 5.37-3.72 1.58-4.04.51-5.36-3.41-4.8-5.17-4.99-3.97-2.21-5.05-1.77h-3.73zm6.188 9.47l4.23 3.03 1.39 4.99-3.98 2.15-6.42 1.65-.27-.44-1.01-3.722-.442-3.913.82-2.21 1.262-1.39 4.42-.125zM1179.267 4.7l-4.465.177-4.465 1.787-4.285 3.035-4.107 6.07-2.768 8.39-2.59 12.95-2.678 18.3-1.43 14.55.53 17.23.98 20.09 4.1 24.91 1.45 8.44-2.8 2.09-13.57 7.23-5.27 4.19-.18 2.67 1.87 4.73 5.09.09 8.93-5.98 6.34-4.2 1.29-.89.4 2.32 5.44 21.34 12.5 42.95 2.32 7.5 2.14-.45-1.34-14.2-4.82-19.2-3.13-12.23-4.73-20.54-1.89-12.23 3.13-2.15 5.27-4.91 7.77-8.4 6.88-11.25 4.02-9.56 2.05-9.74 1.25-8.93-.36-3.04.98-4.56-.81-13.21-.62-8.84-2.15-12.86-4.11-17.86-4.37-11.95-4.29-8.4-3.57-5.54zm-2.055 8.927l1.607 1.787 1.69 4.643 3.3 9.285 2.85 9.376 2.14 7.143 1.25 10.8.89 11.16.98 13.93.09 7.33-1.25 6.79-2.23 8.22-4.65 10-4.92 8.4-7.14 8.13-5.63 4.94-.89-4.39-2.5-15.89-.81-9.28-1.25-11.7-.45-9.73v-8.31l.62-13.39 2.14-14.46 1.96-13.84 2.59-10.71 2.68-5.36 1.87-2.68 2.15-1.69 2.85-.44zm-512.645 84.67l-.536 4.465-6.42.536-9.82-1.25-12.86-1.964-6.6-2.32-5-1.07-2.68-3.75 1.42-3.57 5.35-2.68 12.14-3.214 10.71-1.964 12.32-1.785 11.79-.89 31.43-3.39 22.68-1.07 17.32-.89 22.86.72 15 .9 13.93 1.965 5.35 2.86 3.75 3.57-.9 4.47-3.4 3.04-2.5 1.43-5.72 1.61-2.68-3.39 1.43-1.25 1.43.18 3.03-5-3.57-1.25-7.68-1.78-13.21-.36-12.86-1.07h-11.25l-8.22-.18-11.96.54-14.06 1.23-12.5 1.964-14.46.714-14.46 1.07-11.96 2.86-9.28 1.965-6.6 1.602-1.963 1.43 2.68 3.04 6.604 1.97zm40.1 6.5l3.393-3.392 5.357 2.145 3.75 6.43 9.643 11.25 28.93 32.86 11.07 15.89 2.5 12.32-2.678 3.034-8.036 3.93-16.79.89-28.75-1.963-16.25-2.5-16.07-1.78-18.93-1.78-13.75-.71-7.33-3.39 3.93-3.75 4.46-1.6 30.18-2.68 3.03 5.18 10.89 2.32 13.39.9 14.64 1.97 14.11 1.25 13.21-.35 7.85-.35 2.32-2.68-.89-5-3.57-5.89-5.9-7.32-6.07-7.68-10.89-12.68-9.11-9.82-7.15-8.03-6.07-6.78-4.47-5.89z"/>
  </g>
</svg>
